<svg id="Layer_1" x="0px" y="0px"
	 viewBox="0 0 1000.2 1187.3" style="enable-background:new 0 0 1000.2 1187.3;">
<path id="Shape" d="M9.1,761.3c330.3,0,660.8,0,991.1,0V0.1H0.1v760.6C2.9,761.6,6.1,761.3,9.1,761.3z M92.7,393.6
	c12.8,0.9,25.6,2.5,38.4,0.8c0,11.9-1.3,23.8-1.8,35.6c-0.8,28.7-3.7,57.4-2,86.1c1.3,21.2,5.2,42.4,13.8,61.9
	c12.4,28.2,34.3,51.2,61.8,65.1c35.8,18.2,79.6,19.3,116.3,3.1c27.2-11.7,49.9-32.9,64.1-58.8c19-34.1,25.5-73.4,27.9-111.9
	c2.6-42.5-0.2-84.9-1.5-127.4c-0.5-13,0.2-26.1-0.7-39.1c-1.2-18.3-3-36.6-3.6-54.9c-0.3-12.9-0.5-26.1,2.3-38.8
	c13.1-1.7,26.3-1.9,39.5-0.4c2.5,0.4,5.1,0.6,7.4,1.6c1.6,5.7,1.5,11.7,1.9,17.6c0.8,26,0.6,52.3,5.6,78c3,15.6,8.1,31,16.7,44.4
	c10.1,16,24.2,29.9,41.4,38.1c13.9,6.8,29.5,9.4,44.9,7.4c18.4-2.3,35.6-11.3,49-24c13.1-12.4,22.1-28.7,26.8-46
	c5.9-21.1,6.4-43.3,6.3-65.1c0.1-25.2-0.4-50.4,1.5-75.5c1.7-20.7,5.2-41.5,13-60.8c6.2-15.4,15.3-30,27.6-41.3
	c16.6-15.5,39-24.1,61.5-25.2c34.8-1.9,69.5,11.6,95.9,34c24.7,21.2,40.9,50.8,50.8,81.4c7.4,23.1,11.4,47.1,12,71.4
	c0.3,13,0.1,26.2-3,38.9c-3.3-0.4-6.8,0-9.9-1.6c-8.7-4.1-18.3-5.1-27.8-5.8c0.1-22,7.3-43.4,6-65.5c-1.6-20.9-6.6-41.9-16.4-60.6
	c-6.4-12.2-15-23.2-25.3-32.4c-11.3-11.8-27-19-43.1-21.1c-17.6-2.6-35.5,0.5-51.2,8.8c-12.9,6.7-24.3,16.2-34.1,26.9
	c-13.1,14.6-21.4,33-25.2,52.2c-4.4,22.1-3.7,44.7-4.3,67.1c-0.5,29.4-1.2,59-6.5,88.1c-3.5,18.3-8.8,36.7-19,52.5
	c-8.1,12.8-20.1,22.6-34.3,28.1c-15.7,6-32.8,7.5-49.5,6.9c-13.1-0.6-26.2-2.7-38.8-6.2c-6.4-1.5-12-5.1-18-7.6
	c-10.1-4.5-21-9-32.3-7.7c-10.4,1.1-19.8,7.8-25,16.8c-6.1,10.3-7.8,22.4-9.2,34c-2.8,26.9-2.6,54-3.5,81c-0.4,8-0.2,16.1-1.6,24
	c-10.5,35.3-30.9,66.8-58.7,90.9c-22.3,19.6-50.3,32.2-79.4,37.4c-42.3,7.6-87.3,0.5-124.9-20.5c-24.3-13.6-44.7-33.2-59.3-56.9
	c-15.3-24.6-25.2-52.8-27-81.7c-2.1-26-3.7-52-3.6-78.1C85.1,437,85.5,414.6,92.7,393.6z M678.5,1081.1c12.1,0,24.1,0,36.2,0
	c-6-12.8-12-25.7-18.1-38.5C690.3,1055.3,684.6,1068.3,678.5,1081.1z M0.1,778.6v408.6h1000.2V778.6H0.1z M593.7,846.3
	c3.5-0.8,7.2-0.3,10.8-0.3c1.6-0.1,2.9,1,3.1,2.6c0,0.1,0,0.3,0,0.4c0,30.6,0,61.1,0,91.7c0.1,1.5-1,2.9-2.6,3c-0.1,0-0.3,0-0.4,0
	c-3.4,0-6.8,0.2-10.1-0.1c-1.4-0.3-2.3-1.6-2.1-3c0-30.2,0-60.4,0-90.6C592.2,848.8,592.3,847,593.7,846.3L593.7,846.3z
	 M160.8,907.4c0,10-3.9,19.5-11,26.5c-14.9,14.7-41.3,15.1-56.7,1c-7.6-7.1-11.9-17-11.9-27.4c0-19.2,0-38.3,0-57.5
	c-0.1-1.3,0-2.9,1.3-3.5c3.4-1,7.2-0.3,10.8-0.5c1.5-0.3,3,0.7,3.3,2.2c0.1,0.3,0.1,0.5,0,0.8c0,18.8,0,37.6,0,56.5
	c0,5.7,1.3,11.5,4.6,16.1c8,11.5,26.4,12.7,36.5,3.3c4.8-4.6,7.5-10.8,7.5-17.4c0-19.5,0-39,0-58.5c-0.2-1.4,0.7-2.7,2.1-3
	c3.7-0.2,7.3-0.2,11,0c1.5,0.2,2.5,1.5,2.4,3C160.8,868.5,160.8,888,160.8,907.4z M275.4,850c-0.1,30.8,0,61.7,0,92.5
	c-0.2,3.4-4.4,2.5-6.6,2.6c-21-24-42.1-48-63.2-71.9c-0.4,22.5,0,44.9-0.2,67.4c0.2,1.5-0.8,2.8-2.3,3c-0.2,0-0.3,0-0.5,0
	c-3.3,0.1-6.7,0.1-10.1-0.1c-1.7-0.5-2.2-2.4-2-4c0.1-30.9-0.1-61.7,0.1-92.6c0.3-3.3,4.4-2.5,6.6-2.5c20.9,23.4,42.1,46.7,63.2,70
	c0-21.8,0-43.7,0-65.5c-0.2-1.4,0.8-2.8,2.3-3c3.7-0.3,7.3-0.3,11,0.1C275.3,846.8,275.6,848.6,275.4,850z M387.7,918.3
	c-7.4,12.5-19.7,21.4-33.9,24.3c-6.9,1.6-14,1.1-21,1.2c-7.7,0-15.4,0-23.1,0c-1.6,0.2-3-0.9-3.2-2.4c0-0.2,0-0.4,0-0.6
	c0-30.2,0-60.4,0-90.6c-0.1-1.4,0.1-3.1,1.5-3.8c5.9-0.8,11.9-0.1,17.8-0.3c10.4,0.3,21-1,31.1,1.9c15,4,28.1,15.1,33.9,29.7
	C396,890.9,394.9,905.9,387.7,918.3L387.7,918.3z M421,943.8c-1.5,0.2-2.8-0.9-3-2.4c0-0.2,0-0.4,0-0.6c0-30.6,0-61.2,0-91.8
	c-0.2-1.5,0.9-2.8,2.4-3c0.2,0,0.4,0,0.7,0c19.1-0.1,38.1,0,57.2,0c1.5-0.2,3.4,0.5,3.6,2.2c0.2,3,0.2,6,0,8.9
	c-0.3,1.7-2.1,2.3-3.6,2.2c-15,0-30.1,0-45.1,0v28.3c13,0,26-0.1,39,0c1.5,0,2.7,1.2,2.7,2.7v0.1c0.1,2.9,0.1,5.7-0.1,8.6
	c-0.5,1.4-2,2.1-3.4,1.8h-38.3c0,10,0,20,0,29.9c15.7,0.1,31.4-0.1,47,0.1c2.8,1.1,1.6,4.6,1.9,6.8c0,2.2,0.5,6.1-2.7,6.1
	C459.9,943.9,440.4,943.8,421,943.8L421,943.8z M533.2,1099.7c-3.6,7.3-10.7,12.3-18.3,14.5c-15.2,4-31.4,0.5-43.5-9.6
	c-3-2.1,0-5.3,1.3-7.3c1.3-2,3.3-5.8,6.3-4.2c7.1,5.1,15.2,9.9,24.3,9.9c5.9,0,12.4-2.6,15-8.2c2.4-5,0.5-11.1-3.6-14.6
	c-8.5-7.6-20.3-9.5-29.7-15.5c-5.8-3.5-11-8.5-13-15.1c-2.3-7-1.4-14.8,2.5-21.1c4.4-7.1,12.2-11.4,20.3-12.7
	c12.5-2,25.4,0.9,35.8,8.2c2.3,2.5-0.6,5.3-2,7.4c-1.4,2-3.2,5.3-6.1,3.8c-7.9-4.4-16.8-9-26-6.6c-6.1,1.2-11.6,7-10.5,13.6
	c1,7.2,7.9,11.1,13.9,13.8c10.3,4.4,21.6,8,29.5,16.4C536,1079.9,537.6,1090.7,533.2,1099.7z M561.3,904.4
	c-13.1,0.2-26.3,0-39.4,0.1c0,12.3,0.1,24.7-0.1,37c-0.7,3.5-5.1,2.1-7.6,2.4c-2.5-0.3-7,1.1-7.4-2.5c-0.1-30.7,0-61.4,0-92.1
	c-0.2-1.6,1-3.1,2.6-3.3c0.3,0,0.5,0,0.8,0c17.4-0.1,34.8,0,52.2,0c2.3,0.1,4.6-0.3,6.9,0.3c2.5,1.3,1.2,4.6,1.5,6.9
	c-0.1,2.1,0.6,5.8-2.4,6.1c-15.5,0.2-31,0-46.5,0.1c0,10.7,0,21.4,0,32.1c13.1,0.1,26.3-0.1,39.4,0.1c2.9,0.3,2.3,3.8,2.4,5.9
	C563.4,899.7,564.6,903.9,561.3,904.4L561.3,904.4z M631.9,1023.2c-0.2,2.3,0.8,6.4-2.5,6.6c-8,0.2-16,0-24,0.1c0,27,0,54,0,81
	c0.4,1.5-0.5,3-2,3.5c-3.6,0.2-7.2,0.2-10.8,0.1c-1.6-0.2-2.8-1.8-2.5-3.4c0-0.1,0-0.1,0-0.2c0-27,0-53.9,0-80.9
	c-7.8,0-15.7,0.1-23.5,0c-1.2,0.1-2.3-0.6-2.8-1.7c-0.3-3-0.3-6-0.1-9c0.1-1.4,1.2-2.5,2.6-2.4c0.1,0,0.2,0,0.4,0
	c21,0,41.9,0,62.9,0C632.7,1016.8,631.8,1021,631.9,1023.2L631.9,1023.2z M640.5,943.7c-1.2-0.5-2-1.6-1.9-2.9c0-30.9,0-61.8,0-92.8
	c-0.6-3.7,4.4-4.1,6.7-3.1c21.2,23.2,42.1,46.5,63.2,69.8c0-21.9,0-43.8,0-65.7c-0.2-1.5,0.9-2.9,2.4-3.1c0.2,0,0.4,0,0.6,0
	c3.4-0.2,6.7-0.1,10.1,0.2c1.7,0.5,2,2.4,1.9,3.9c-0.1,30.9,0.1,61.7-0.1,92.6c-0.2,3.3-4.4,2.5-6.7,2.6c-21.1-24-42.2-48-63.3-72
	c0,22.5,0,45,0,67.5c0.1,1.5-1,2.9-2.5,3c-0.1,0-0.3,0-0.4,0C647.2,943.8,643.9,944,640.5,943.7L640.5,943.7z M743.1,1114.3
	c-3.8,0.3-7.6,0.3-11.3,0.1c-1.8-0.2-2.4-2.1-3.1-3.4c-2.7-5.9-5.6-11.8-8.3-17.7c-15.8-0.1-31.7,0-47.5-0.1
	c-2.9,6.2-5.8,12.3-8.7,18.6c-0.5,1.6-1.9,2.7-3.6,2.7c-3.5,0.2-7.1,0.1-10.6-0.2c-1.7-0.5-2-2.6-1.1-3.9
	c14.7-30.9,29.4-61.8,44.2-92.7c0.9-3.1,6-3.3,7.2-0.3c14.7,31,29.3,61.9,44,92.8C745.2,1111.5,745,1113.8,743.1,1114.3z
	 M754.6,940.7c0-30.6,0-61.1,0-91.7c-0.2-1.5,0.9-2.8,2.4-3c0.2,0,0.4,0,0.6,0c19.4-0.1,38.9-0.1,58.3,0c3.6,0.2,2.6,4.6,2.7,7.1
	c0,2.2,0.5,6.1-2.7,6.1c-15.4,0.2-30.8,0-46.2,0.1c0,9.4,0,18.9,0,28.3c13.3,0.1,26.5-0.2,39.8,0.1c2.8,1,1.7,4.4,2,6.7
	c-0.3,2.1,0.8,5.2-1.7,6.3c-13.3,0.3-26.7,0-40,0.1c0,10,0,20,0,29.9c15.7,0.1,31.3-0.1,47,0.1c2.8,1.1,1.6,4.5,1.9,6.8
	c0,2.2,0.5,6.2-2.8,6.1c-19.4,0.1-38.8,0-58.2,0c-1.5,0.2-2.9-0.8-3.1-2.3C754.6,941.2,754.6,940.9,754.6,940.7L754.6,940.7z
	 M827.5,1029.8c-8,0.2-16.1,0-24.2,0.1v80.9c0.2,1.6-0.8,3.6-2.6,3.6c-3.3,0.1-6.7,0.1-10,0c-1.4,0-2.6-1.1-2.7-2.5v-0.1
	c-0.1-27.3,0-54.6,0-81.8c-8-0.1-16,0.1-24-0.1c-3.4-0.2-2.4-4.3-2.5-6.6c0.2-2.2-0.9-6.3,2.4-6.5c21.2,0,42.5-0.1,63.7,0
	c3.1,0.4,2.2,4.3,2.3,6.5C829.8,1025.5,830.7,1029.4,827.5,1029.8L827.5,1029.8z M927,1114.4c-19.3,0.1-38.6,0-57.9,0
	c-1.6,0.2-3-0.9-3.2-2.5c0-0.3,0-0.7,0.1-1c0-30.6,0-61.2,0-91.8c-0.2-1.6,1.6-2.7,3-2.5c19.6,0,39.2-0.1,58.8,0.1
	c2.9,0.6,1.9,4.3,2.2,6.5c-0.2,2.2,0.7,5.9-2.2,6.5c-15.6,0.3-31.2,0-46.8,0.1c0,9.4,0,18.9,0,28.3c13,0,26.1-0.1,39.2,0.1
	c3.2,0.1,2.7,4,2.7,6.3c-0.3,2.3,0.8,5.7-1.9,6.8c-13.3,0.2-26.6,0-40,0.1c0,10,0,20,0,30c15.4,0,30.7,0,46.1,0
	c3.4-0.1,2.9,4.1,2.9,6.4S930.7,1114.5,927,1114.4L927,1114.4z M927.1,913.5c-6.2,14.5-19.8,25.3-35,28.8c-7.9,2-16,1.3-24.1,1.5
	c-7.4-0.1-14.8,0.1-22.1-0.1c-1.7,0.1-2.6-1.7-2.5-3.2c0-30.2,0-60.3,0-90.4c0-1.2-0.1-2.7,1-3.5c1.2-1.1,3.1-0.5,4.6-0.7
	c10.3,0.1,20.7,0,31,0c19.2-0.1,38.3,11.2,46.5,28.8C932.4,887,932.6,901.2,927.1,913.5z M884,859.8c-8.4-0.9-17-0.2-25.4-0.4
	c0,23.7,0,47.4,0,71.1c13.3-0.4,28,2,39.8-5.7c15-8.8,20.4-29.4,13.2-45C906.8,868.8,895.7,861.3,884,859.8L884,859.8z M355.9,862.2
	c-10.9-4.4-22.9-2.2-34.3-2.8c0,23.7,0,47.4,0,71.1c13-0.4,27.3,2,39-5.2c13.6-7.5,20-24.7,16.1-39.5
	C374,875,366.2,866.2,355.9,862.2L355.9,862.2z"/>
</svg>
