<svg xmlns="http://www.w3.org/2000/svg" viewBox="-161 296.7 288 201.3">
	<!-- star -->
	<g>
		<path fill="#009B7C" d="M-108.2 329.3l3.2-24.5 19.3 18.8"/>
		<path fill="#007AC2" d="M-103.6 356.5l3.5-20.6 61.5-15.4-47.1 31.7 20.6 36.1"/>
		<path fill="#EF3E42" d="M-124 347.1l-29.4-19.3 44.3 9-1.9 15-33.6 38.1"/>
		<path fill="#FFD520" d="M-133 381l29.3-18.6 39.5 32.1-40.7-20.1"/>
	</g>

	<!-- text -->
	<g fill="white">
		<path d="M-16.6 443.6c-3.5 0-6.4 1.2-8.6 3.6-2.2 2.3-3.3 5.2-3.3 9 0 3.7 1.1 6.8 3.2 9.4 2.3 2.4 5 3.6 8.3 3.6 3.4 0 6.3-1.1 8.5-3.5 2.3-2.4 3.5-5.4 3.5-9 0-3.8-1.2-6.9-3.5-9.5-2.1-2.3-4.9-3.6-8.1-3.6zm-.3 29c-2.3 0-4.6-.4-6.7-1.1-2-.8-3.8-1.8-5.3-3.3-1.7-1.4-2.9-3.2-3.7-5.2-.8-2-1.2-4.1-1.2-6.2 0-1.7.2-3.4.8-5.1.4-1.6 1.3-3.1 2.3-4.5 1.7-2.2 3.6-3.9 6.1-5.1 2.4-1.2 4.9-1.8 7.7-1.8 2.4 0 4.6.5 6.8 1.1 2.1.8 3.9 1.8 5.4 3.3 1.5 1.4 2.8 3.1 3.7 5.2.8 2 1.3 4.2 1.3 6.5 0 2.1-.5 4.2-1.6 6.2-.9 2.1-2.3 4-3.9 5.5-1.5 1.5-3.3 2.6-5.2 3.3-2.1.8-4.2 1.2-6.5 1.2zM1.3 471.9c.7-.6 1.1-1.2 1.4-2 .3-.8.5-2 .5-3.4v-20.2c0-1.4-.2-2.6-.5-3.4-.3-.8-.7-1.4-1.4-2h8.6c-.7.7-1.2 1.3-1.5 2-.3.8-.3 2-.3 3.4v21.6c1.1.2 2.2.2 3.1.3 1 .1 1.8.1 2.5.1 1.5 0 3-.2 4.5-.5 1.4-.5 2.8-1.1 4.1-2l-2.2 6.1H1.3z"/>
		<path d="M21.6 471.9c.7-.6 1.1-1.2 1.4-2 .3-.8.5-2 .5-3.4v-20.2c0-1.5-.2-2.7-.5-3.5-.4-.8-.8-1.4-1.4-2h8.6c-.7.6-1.2 1.2-1.4 2-.3.8-.5 2-.5 3.5v21.6c1.2.2 2.3.2 3.3.3.9.1 1.7.1 2.4.1 1.6 0 3.1-.2 4.5-.5 1.4-.5 2.8-1.1 4.2-2l-2.3 6.1H21.6zM43.4 471.9c.8-.6 1.1-1.2 1.4-2 .3-.8.5-2 .5-3.4v-20c0-1.5-.2-2.7-.5-3.4-.3-.8-.7-1.4-1.4-2h16.9v4.8c-.7-.5-1.5-.9-2.5-1.2-.9-.3-2-.4-3.1-.4-.7 0-1.2 0-2 .2-.8.1-1.7.2-2.6.5v8.6h7.6v4.5c-.4-.4-.9-.7-1.5-.8-.6-.2-1.7-.3-3.3-.3h-2.7v11.2c1.1.2 2.2.2 3.2.3.8.2 1.7.2 2.4.2 1.6 0 3.1-.2 4.4-.5 1.4-.5 2.9-1.1 4.2-2l-2.3 6-18.7-.3zM90.1 446c-1.4-.8-2.7-1.5-3.9-1.9-1.3-.5-2.7-.8-4-.8-3.6 0-6.4 1.3-8.6 3.6-2.3 2.4-3.3 5.4-3.3 9.3 0 3.9 1.1 7.1 3.4 9.5C76.1 468 79 469 83 469c.9 0 1.8-.1 2.9-.1 1-.2 2-.5 3.2-.8v-6.4c0-1.7-.2-2.8-.4-3.6-.3-.7-.8-1.3-1.4-1.9h6v15c-2.1.5-3.9.8-5.6 1.1-1.7.3-3.3.3-4.8.3-2.1 0-4.1-.2-5.8-.5-1.7-.5-3.3-1.1-4.6-2-2.4-1.4-4.2-3.2-5.5-5.6-1.3-2.4-1.8-4.9-1.8-7.8 0-2.3.3-4.4 1.2-6.5 1-2 2.4-3.9 4.1-5.6 1.5-1.4 3.4-2.5 5.5-3.3 2-.7 4.3-1.1 6.7-1.1 1.1 0 2.3.2 3.6.3 1.3.2 2.7.4 4.2.7l-.4 4.8zM96.1 471.9c.7-.6 1.1-1.2 1.4-2 .3-.8.5-2 .5-3.4v-20c0-1.5-.2-2.7-.5-3.4-.3-.8-.8-1.4-1.4-2H113v4.8c-.8-.5-1.6-.9-2.6-1.2-.9-.3-1.9-.4-3-.4-.7 0-1.3 0-2 .2-.8.1-1.6.2-2.5.5v8.6h7.4v4.5c-.3-.4-.8-.7-1.4-.8-.6-.2-1.7-.3-3.3-.3h-2.7v11.2c1.1.2 2.1.2 3.1.3.9.2 1.7.2 2.5.2 1.5 0 3-.2 4.4-.5 1.4-.5 2.7-1.1 4.1-2l-2.1 6-18.8-.3zM-31.6 476.3l-3.3 8.3c-2.3.8-4.2 1.4-6.2 1.7-2 .4-3.8.5-5.5.5-2.7 0-5.2-.3-7.6-1-2.4-.7-4.7-1.7-6.9-2.9-3.6-2.1-6.1-4.9-8.2-8.6-1.9-3.5-2.8-7.5-2.8-11.8 0-3.2.7-6.5 2-9.5 1.4-3.2 3.4-5.8 6-8.3 2.3-2.1 5-3.8 8.1-4.9 3-1.1 6.2-1.7 9.6-1.7 1.7 0 3.3.2 5.2.5 1.8.2 3.7.7 5.8 1.4v7.4c-2.2-1.1-4.1-2-6-2.5-1.9-.5-3.7-.8-5.5-.8-5.2 0-9.4 1.7-12.6 5-3 3.1-4.6 7.3-4.6 12.7 0 5.8 1.5 10.5 4.8 14s7.6 5.4 12.8 5.4c2.2 0 4.4-.4 6.9-1.1 2.6-1.1 5.2-2.1 8-3.8zM-43.8 367H-30l-6.6-18.1-7.2 18.1zm-6.3 15.8c-.2.5-.3 1.1-.4 1.4-.2.6-.2 1.1-.2 1.7 0 .4.2.9.5 1.4.3.6.9 1.1 1.7 1.8h-11.1c.9-.6 1.7-1.4 2.5-2.6.6-1.1 1.4-2.5 2.2-4.5l13.1-33.2c.2-.7.5-1.2.6-2 .1-.5.2-1.1.2-1.5 0-.5-.1-1.1-.4-1.5-.2-.4-.7-.8-1.2-1.3H-32l14.7 39.1c.8 1.7 1.5 3.2 2.4 4.2.8 1.1 1.8 2.3 3.1 3.2h-13.4l.2-.2c1.3-1.2 1.9-2.2 1.9-2.8 0-.8-.2-1.7-.8-3.2-.1-.2-.1-.3-.2-.5l-4.1-10.8h-17.1l-4.8 11.3zM9.5 389v-2.4c-1.6 1.1-3.1 1.9-4.6 2.4-1.5.5-3.1.8-4.7.8-1.8 0-3.4-.3-4.9-.8-1.4-.6-2.5-1.5-3.6-2.7-.8-.9-1.4-2.1-1.7-3.3-.3-1.1-.5-2.9-.5-5v-14.5c0-1.6-.2-2.7-.5-3.5-.2-.7-.7-1.3-1.3-1.9H-4c-.8.6-1.1 1.2-1.4 1.9-.3.8-.4 1.9-.4 3.5V377c0 2.2.1 3.8.3 4.9.2.9.6 1.7 1.1 2.3.6.8 1.4 1.4 2.4 1.7 1.1.3 2.1.5 3.6.5 1.1 0 2.2-.2 3.1-.5 1-.4 1.8-.8 2.7-1.5.6-.5 1.1-1.2 1.4-2 .3-.8.5-2 .5-3.6v-15.4c0-1.6-.1-2.8-.5-3.5-.2-.7-.7-1.4-1.3-1.9h8.4c-.7.5-1.1 1.2-1.4 2-.3.8-.5 2-.5 3.4v20c0 1.6.2 2.7.5 3.5.2.8.7 1.4 1.4 2H9.5v.1zM22.1 388.4l-1.4-5.6c1.7 1.2 3.5 2.2 5.3 2.7 1.5.6 3.3.8 4.9.8 2.1 0 3.9-.4 5.2-1.4 1.3-.9 2-2 2-3.6 0-.3-.1-.8-.2-1.2-.1-.4-.4-.8-.5-1.2-.6-.9-2.5-2-5.8-3.6-.8-.5-1.4-.7-1.9-1-3-1.5-5.1-2.9-6.2-4.2-1.1-1.2-1.6-2.8-1.6-4.6 0-2.4 1-4.6 3-5.9 2-1.5 4.9-2.4 8.4-2.4 1 0 2.1.2 3.3.3 1.2.2 2.6.3 4 .5v5.2c-1.2-1-2.5-1.7-3.9-2.2-1.3-.5-2.6-.8-3.9-.8-1.8 0-3.3.5-4.3 1.1-1.1.8-1.5 1.8-1.5 3 0 1.1.3 2 1.1 2.9.9.8 2.8 2 5.7 3.3.2.1.5.2.8.3 2.6 1.2 4.3 2.3 5.7 3.3.8.7 1.7 1.5 2.1 2.4.5 1.1.8 2.2.8 3.3 0 2.7-1.3 5-3.7 6.9-2.4 1.8-5.5 2.7-9.2 2.7-1.1 0-2.4-.1-3.7-.4-1.3.3-2.9-.1-4.5-.6zM59.8 383.6c0 1.6.1 2.7.5 3.5.2.8.7 1.4 1.3 2H53c.7-.6 1.1-1.1 1.4-2 .3-.8.5-1.9.5-3.5v-22.1h-2.6c-1.7 0-3.1.2-4.3.5-1.1.3-1.9.7-2.4 1.3l1.4-5.1h22.2l-1.6 4.9c-.4-.5-1.1-.9-1.7-1.1-.8-.3-1.7-.5-2.9-.5h-3.4l.2 22.1zM79.7 383.6c0 1.6.1 2.7.3 3.5.3.8.8 1.4 1.6 2H73c.7-.6 1.1-1.2 1.4-2 .2-.8.4-1.9.4-3.5v-20.1c0-1.7-.2-2.8-.4-3.6-.3-.7-.8-1.4-1.4-2h8.6c-.8.6-1.3 1.3-1.6 2-.2.8-.3 1.9-.3 3.6v20.1zM116 358.1c-.8.6-1.3 1.2-1.6 2-.3.7-.4 1.9-.4 3.5v26.2c-1.1 0-2.1-.4-3.1-1s-2.2-1.9-3.6-3.8l-16-20.2v18.8c0 1.6.1 2.8.4 3.6.3.7.7 1.3 1.5 1.9H86c.7-.6 1.1-1.2 1.4-2 .3-.8.5-1.9.5-3.5v-20c0-1.6-.2-2.8-.5-3.5-.3-.8-.7-1.4-1.4-2h6.3l18.4 23.3v-17.8c0-1.6-.2-2.8-.5-3.5-.3-.8-.7-1.4-1.4-2h7.2zM-86.6 401.1c-3.4 0-6.1 1.4-8.3 3.7-2.1 2.4-3.2 5.5-3.2 9.3 0 3.8 1.1 7.1 3.2 9.6 2.1 2.6 4.8 3.9 8 3.9 3.3 0 6.1-1.1 8.3-3.6 2.3-2.4 3.3-5.6 3.3-9.3 0-3.8-1.1-7.1-3.3-9.6-2.2-2.6-4.9-4-8-4zm-.3 29.8c-2.3 0-4.5-.3-6.5-1.1-2.1-.8-3.7-1.8-5.2-3.2-1.5-1.7-2.7-3.4-3.4-5.5-1-2.1-1.3-4.2-1.3-6.4 0-1.7.2-3.6.7-5.2.6-1.7 1.3-3.3 2.3-4.7 1.7-2.2 3.6-4 5.8-5.2 2.4-1.1 4.9-1.8 7.7-1.8 2.3 0 4.6.5 6.6 1.1 2 .8 3.7 1.8 5.2 3.3 1.7 1.5 2.9 3.3 3.7 5.5.8 2 1.3 4.2 1.3 6.6 0 2.3-.6 4.4-1.6 6.5-.9 2-2.1 4-3.8 5.7-1.5 1.4-3.3 2.4-5.2 3.2-2 .9-4 1.2-6.3 1.2zM-71.7 430.4c.7-.8 1.4-1.7 1.7-2.4.4-.8.8-1.8.9-2.9l2.8-21.4c.2-.5.2-.9.3-1.4v-.9c0-.5-.2-.9-.3-1.3-.2-.4-.6-.8-1.2-1.4h7.4l8.8 23.7 8.6-23.7h7.2c-.5.5-.8.9-1.1 1.4-.3.5-.3 1.1-.3 1.8v1.8l2.7 21.8c.1 1.1.3 2 .6 2.9.3.7.8 1.4 1.5 2.1h-8c.5-.5 1-1 1.1-1.6.3-.5.5-1.2.5-2v-.4-.3l-2.4-22.4-10.2 27c-.7-.4-1.4-1.1-2-2-.5-.7-1.2-2-1.7-3.4l-8.2-21.5-2.9 20.9c-.2.8-.2 1.2-.2 1.5v.6c0 .8.1 1.5.4 2 .2.5.7 1.1 1.4 1.7l-7.4-.2z"/>
		<path d="M-33.6 430.2c.8-.8 1.3-1.7 1.7-2.4.3-.8.8-1.8.9-2.9l2.8-21.4c.1-.5.2-.9.3-1.4v-.9c0-.5-.2-.9-.3-1.3-.2-.3-.5-.8-1.1-1.4h7.5l8.9 23.7 8.6-23.7H3c-.6.5-.8.9-1.1 1.4-.2.5-.3 1.1-.3 1.8v1.1c0 .2.1.4.1.7l2.7 21.8c.1 1.1.3 2 .6 2.9.3.7.8 1.4 1.5 2.1h-8.1c.6-.5 1-1 1.1-1.6.3-.5.5-1.1.5-2v-.4c0-.2 0-.2-.1-.3l-2.4-22.4-10.2 27.1c-.8-.5-1.5-1.2-2.1-2-.5-.8-1.1-2-1.7-3.5l-8.3-21.5-2.9 20.9c-.1.8-.2 1.2-.2 1.5v.6c0 .9.2 1.5.4 2 .3.5.8 1.1 1.4 1.7l-7.5-.2z"/>
		<path d="M24.9 430.2v-2.4c-1.5 1.1-3 2-4.5 2.5s-3 .8-4.6.8c-1.7 0-3.3-.3-4.7-.8-1.4-.6-2.5-1.6-3.6-2.7-.8-1-1.4-2.1-1.7-3.4-.3-1.3-.4-3-.4-5.1v-14.9c0-1.6-.2-2.8-.5-3.6-.3-.8-.7-1.4-1.4-2.1h8.3c-.7.7-1.1 1.2-1.4 2.1-.3.8-.3 2-.3 3.6V418c0 2.2 0 3.8.3 4.9.1 1.1.4 1.9.9 2.6.6.7 1.3 1.3 2.3 1.7.9.4 2.1.5 3.4.5 1.1 0 2.1-.1 3.1-.5.9-.3 1.7-.8 2.5-1.5.7-.5 1.1-1.2 1.4-2.2.3-.8.5-2 .5-3.5v-15.8c0-1.7-.2-2.9-.5-3.6-.3-.8-.8-1.5-1.3-2H31c-.7.5-1.1 1.2-1.4 2.1-.3.8-.4 2-.4 3.5v20.5c0 1.7.1 2.9.4 3.6.3.7.8 1.4 1.4 2h-6.1v-.1zM60.8 398.6c-.6.6-1.1 1.2-1.4 2-.2.8-.3 2-.3 3.6V431c-1.1 0-2.1-.3-3.1-1-.8-.7-2-2-3.5-3.9l-15.6-20.6v19.2c0 1.8.1 3 .4 3.6.2.7.8 1.4 1.4 2h-6.8c.6-.6 1.1-1.3 1.3-2 .2-.8.4-2 .4-3.6v-20.5c0-1.5-.1-2.7-.4-3.6-.2-.8-.7-1.4-1.3-2H38l17.8 23.8v-18.3c0-1.5-.2-2.7-.4-3.6-.2-.8-.7-1.4-1.3-2h6.7v.1zM68.3 424.6c0 1.7.1 2.9.3 3.6.2.7.8 1.4 1.4 2h-8.3c.6-.6 1.1-1.3 1.4-2 .3-.8.5-2 .5-3.6v-20.5c0-1.6-.2-2.8-.5-3.6-.3-.8-.8-1.4-1.4-2.1H70c-.7.7-1.1 1.2-1.4 2.1-.2.8-.3 2-.3 3.6v20.5zM84 424.6c0 1.7.2 2.9.5 3.6.3.7.7 1.4 1.4 2h-8.2c.5-.6 1-1.3 1.2-2 .3-.8.5-2 .5-3.6V402H77c-1.7 0-3.1.2-4.2.5-1 .3-1.8.8-2.4 1.4l1.4-5.2h21.7l-1.4 5.1c-.5-.5-1.1-.9-1.8-1.2-.7-.3-1.6-.5-2.7-.5H84v22.5z"/>
		<path d="M109.3 424.6c0 1.7 0 2.9.4 3.6.2.7.7 1.4 1.4 2h-8.3c.7-.6 1.1-1.3 1.4-2 .4-.8.5-2 .5-3.6V416l-7.5-12.6-1.8-2.7c-.8-.7-1.4-1.4-2.1-2h6.6l7.9 13.7 5.2-9c.2-.5.5-1 .7-1.4.1-.5.2-.8.2-1.2 0-.4-.1-.7-.3-1.1-.2-.3-.6-.7-1.1-1h7.2L109.3 416v8.6zM-101.1 428.6l-3.5 8.4c-2.3.7-4.2 1.2-6.1 1.6-1.9.4-3.7.5-5.5.5-2.5 0-5.1-.3-7.4-1-2.5-.6-4.9-1.6-7.1-3-3.5-2-6.1-4.9-8.1-8.5-1.8-3.6-2.8-7.7-2.8-11.9 0-3.3.6-6.4 2-9.6 1.4-3 3.5-5.8 6-8.1 2.4-2.2 5-3.9 8.1-5 3-1.1 6.1-1.7 9.7-1.7 1.5 0 3.3.2 5.1.5 1.8.2 3.7.7 5.8 1.3v7.4c-2.1-1.1-4.2-1.9-6-2.4-1.8-.5-3.6-.8-5.5-.8-5.2 0-9.4 1.7-12.5 4.9-3.1 3.1-4.7 7.4-4.7 12.7 0 5.9 1.7 10.5 4.9 14 3.3 3.6 7.5 5.3 12.8 5.3 2.1 0 4.5-.3 6.8-1s5-1.8 8-3.6z"/>
		<path d="M-24.6 486.8c.5-.3.5-.3.6-.5.1-.2.1-.5.1-1V481c0-.9-.1-1.2-.7-1.4h4c1.8 0 3.1.3 4.2.9 1.2.6 1.8 1.6 1.8 2.6 0 1.4-1.2 2.7-3.1 3.3-.9.3-2 .4-4.3.4h-2.6zm2.4-.9c.5.1.7.1 1.2.1 1.4 0 2.4-.2 3.1-.5 1.1-.5 1.6-1.2 1.6-2.2 0-.8-.4-1.5-1.1-2.1-.7-.5-1.9-.8-3.3-.8-.5 0-.9 0-1.5.1v5.4zM-1.6 481.1c0-.9-.1-1.2-.7-1.4H.8c-.6.2-.7.5-.7 1.4v4.3c0 .9.1 1.2.7 1.4h-3.1c.6-.2.7-.5.7-1.4v-4.3zM19.7 481c-.7-.4-1.6-.7-2.6-.7-1.3 0-2.2.4-2.2 1 0 .5.5.8 2.4 1.4 1.4.4 1.9.6 2.4.9.6.3.9.7.9 1.2s-.4 1.1-1 1.5c-.8.5-2 .8-3.4.8-1 0-1.9-.1-2.9-.3l-.5-1.3c1.1.6 2.3.9 3.6.9 1.4 0 2.4-.5 2.4-1.1 0-.3-.2-.6-.5-.8-.4-.2-.8-.4-2.1-.8s-1.8-.6-2.3-.9c-.5-.3-.9-.8-.9-1.2 0-1.2 1.6-1.9 4.1-1.9.9 0 1.6.1 2.5.2l.1 1.1zM39.9 480.9c-.2-.3-.6-.4-1.5-.4H37v5c0 .7.2 1 .9 1.3h-3.2c.6-.2.7-.5.7-1.4v-4.9h-1.3c-1 0-1.4.1-2.1.4l.6-1.3c.2 0 .5.1.8.1h7.1l-.6 1.2zM54.3 485.4c0 .9.1 1.2.7 1.4h-3.1c.6-.2.7-.5.7-1.4v-4.3c0-.9-.1-1.2-.7-1.4H55.8c1.1 0 1.8.1 2.4.4.7.3 1.1.9 1.1 1.4 0 .8-1.1 1.6-2.6 1.9 2.4 2.2 3.7 3 5 3.5-1 .1-1.2.1-1.5.1-.9 0-1.4-.2-2.5-1.1-1-.7-2-1.7-2.9-2.7 1.8-.2 2.7-.7 2.7-1.5 0-.7-.8-1.2-2-1.2-.4 0-.6 0-1.1.1l-.1 4.8zM73.2 481.1c0-.9-.1-1.2-.7-1.4h3.1c-.6.2-.7.5-.7 1.4v4.3c0 .9.1 1.2.7 1.4h-3.1c.6-.2.7-.5.7-1.4v-4.3zM96.4 481.1c-1.1-.4-2-.6-3-.6-2.3 0-3.9 1.1-3.9 2.6 0 1.7 1.8 3 4.1 3 1.1 0 2.2-.2 3.6-.7l-.8 1.3c-.9.2-1.6.3-2.5.3-3.7 0-6.2-1.5-6.2-3.7s2.4-3.7 5.8-3.7c.8 0 1.8.1 2.9.3v1.2zM116.1 480.9c-.2-.3-.6-.4-1.5-.4H113.2v5c0 .7.2 1 .9 1.3h-3.2c.6-.2.7-.5.7-1.4v-4.9h-1.3c-1 0-1.4.1-2.1.4l.6-1.3c.2 0 .5.1.8.1H116.6l-.5 1.2z"/>
	</g>
</svg>