<?xml version="1.0" standalone="no"?>
<!DOCTYPE svg PUBLIC "-//W3C//DTD SVG 20010904//EN"
 "http://www.w3.org/TR/2001/REC-SVG-20010904/DTD/svg10.dtd">
<svg version="1.0" xmlns="http://www.w3.org/2000/svg"
 width="1000.000000pt" height="1000.000000pt" viewBox="0 0 1000.000000 1000.000000"
 preserveAspectRatio="xMidYMid meet">
<metadata>
Created by potrace 1.11, written by Peter Selinger 2001-2013
</metadata>
<g transform="translate(0.000000,1000.000000) scale(0.100000,-0.100000)"
fill="#000000" stroke="none">
<path d="M0 5000 l0 -5000 5000 0 5000 0 0 5000 0 5000 -5000 0 -5000 0 0
-5000z m7828 3250 c271 -55 507 -184 713 -389 270 -271 444 -644 526 -1128 14
-87 18 -161 17 -378 0 -153 -5 -283 -10 -300 -9 -27 -14 -30 -45 -27 -19 2
-56 11 -84 21 -51 19 -122 35 -209 46 l-49 7 7 66 c4 37 18 150 32 252 31 217
29 390 -5 551 -64 297 -180 512 -379 700 -133 126 -237 182 -401 215 -101 20
-282 15 -376 -11 -258 -71 -532 -298 -660 -546 -114 -221 -154 -464 -155 -934
-1 -1050 -158 -1535 -557 -1721 -121 -57 -215 -75 -414 -81 -272 -8 -441 21
-646 112 -178 79 -247 98 -341 93 -92 -4 -151 -29 -216 -93 -133 -129 -163
-312 -186 -1107 l-9 -338 -31 -92 c-157 -462 -510 -871 -920 -1067 -650 -310
-1488 -186 -1999 295 -159 150 -267 299 -371 509 -159 324 -204 620 -205 1350
0 387 6 467 47 639 l22 89 74 -7 c41 -3 129 -6 195 -6 l120 0 -7 -82 c-37
-477 -47 -1090 -22 -1279 53 -392 187 -667 439 -906 251 -237 565 -358 927
-356 282 1 521 73 755 228 419 278 648 782 706 1555 19 251 -5 1551 -36 1935
-25 318 -23 649 4 693 18 30 433 24 464 -7 5 -5 15 -161 23 -347 18 -465 41
-622 118 -838 58 -162 145 -294 277 -422 91 -86 146 -125 252 -174 200 -93
396 -102 605 -31 223 77 425 263 527 485 108 235 134 453 135 1141 0 345 9
491 41 684 98 592 419 951 912 1021 93 13 280 4 395 -20z"/>
</g>
</svg>
